<svg width="30" height="30" viewBox="0 0 30 30" fill="none" xmlns="http://www.w3.org/2000/svg">
<rect width="30" height="30" rx="2" fill="white"/>
<path fill-rule="evenodd" clip-rule="evenodd" d="M5 8.54545C5 7.69192 5.68879 7 6.53846 7H23.4615C24.3112 7 25 7.69192 25 8.54545V22.4545C25 23.3081 24.3112 24 23.4615 24H6.53846C5.68879 24 5 23.3081 5 22.4545V8.54545ZM23.4615 8.54545H6.53846V22.4545H23.4615V8.54545Z" fill="black"/>
<path fill-rule="evenodd" clip-rule="evenodd" d="M10.5597 13.6218C10.7479 13.5426 10.9498 13.5019 11.1538 13.5019C11.3579 13.5019 11.5598 13.5426 11.748 13.6218C11.9351 13.7005 12.1049 13.8156 12.2476 13.9604L16.5385 18.2709L16.5426 18.2667L18.5217 16.2785C18.6644 16.1337 18.8341 16.0187 19.0212 15.94C19.2094 15.8608 19.4114 15.8201 19.6154 15.8201C19.8194 15.8201 20.0214 15.8608 20.2096 15.94C20.3967 16.0187 20.5664 16.1337 20.709 16.2785L24.7747 20.3627C25.0751 20.6645 25.0751 21.1537 24.7747 21.4555C24.4743 21.7573 23.9872 21.7573 23.6868 21.4555L19.6154 17.3655L19.6113 17.3697L17.6346 19.3553L17.6322 19.3577C17.4895 19.5026 17.3198 19.6177 17.1326 19.6964C16.9445 19.7756 16.7425 19.8163 16.5385 19.8163C16.3344 19.8163 16.1325 19.7756 15.9443 19.6964C15.7572 19.6177 15.5874 19.5026 15.4447 19.3577L11.1538 15.0473L11.1497 15.0515L6.31316 19.91C6.01276 20.2118 5.52571 20.2118 5.2253 19.91C4.9249 19.6083 4.9249 19.119 5.2253 18.8172L10.0601 13.9605C10.2028 13.8156 10.3725 13.7005 10.5597 13.6218Z" fill="black"/>
<path d="M17.6923 13.9545C18.3296 13.9545 18.8462 13.4356 18.8462 12.7955C18.8462 12.1553 18.3296 11.6364 17.6923 11.6364C17.0551 11.6364 16.5385 12.1553 16.5385 12.7955C16.5385 13.4356 17.0551 13.9545 17.6923 13.9545Z" fill="black"/>
</svg>
